<?xml version="1.0" standalone="no"?>
<!DOCTYPE svg PUBLIC "-//W3C//DTD SVG 20010904//EN"
 "http://www.w3.org/TR/2001/REC-SVG-20010904/DTD/svg10.dtd">
<svg version="1.0" xmlns="http://www.w3.org/2000/svg"
 width="512.000000pt" height="512.000000pt" viewBox="0 0 512.000000 512.000000"
 preserveAspectRatio="xMidYMid meet">

<g transform="translate(0.000000,512.000000) scale(0.100000,-0.100000)"
fill="#000000" stroke="none">
<path d="M1431 5109 c-169 -33 -328 -180 -388 -359 -17 -52 -18 -132 -21
-1620 -2 -1014 1 -1595 7 -1650 29 -235 216 -422 451 -451 55 -6 636 -9 1650
-7 1488 3 1568 4 1620 21 183 62 327 219 360 396 15 78 14 3202 -1 3273 -39
186 -211 358 -397 397 -65 13 -3212 14 -3281 0z m2669 -2939 c266 -333 487
-611 493 -617 7 -10 -298 -13 -1522 -13 l-1531 0 377 503 c208 277 383 504
388 504 6 0 124 -153 263 -340 211 -282 256 -337 266 -326 7 8 179 220 381
472 354 442 368 458 385 440 10 -10 235 -290 500 -623z"/>
<path d="M0 2280 c0 -1296 3 -1834 11 -1872 39 -186 211 -358 397 -397 38 -8
576 -11 1872 -11 l1820 0 0 255 0 255 -1795 0 -1795 0 0 1795 0 1795 -255 0
-255 0 0 -1820z"/>
</g>
</svg>
